HIERARCHY
ROOT Hips
{
    OFFSET   0.000000   0.000000   0.000000
    CHANNELS 6 Xposition Yposition Zposition Zrotation Xrotation Yrotation
    JOINT Chest
    {
        OFFSET   0.000000   8.007240   0.000000
        CHANNELS 3 Zrotation Xrotation Yrotation
        JOINT Chest2
        {
            OFFSET   0.000000  22.077100   0.000000
            CHANNELS 3 Zrotation Xrotation Yrotation
            JOINT Neck
            {
                OFFSET   0.000000  23.254800   0.000000
                CHANNELS 3 Zrotation Xrotation Yrotation
                JOINT Head
                {
                    OFFSET   0.000000  14.370000   1.956600
                    CHANNELS 3 Zrotation Xrotation Yrotation
                    End Site
                    {
                        OFFSET   0.000000  19.566000   0.000000
                    }
                }
            }
            JOINT LeftCollar
            {
                OFFSET   3.911900  19.017000  -0.467064
                CHANNELS 3 Zrotation Xrotation Yrotation
                JOINT LeftShoulder
                {
                    OFFSET  10.383700   0.000000   0.000000
                    CHANNELS 3 Zrotation Xrotation Yrotation
                    JOINT LeftElbow
                    {
                        OFFSET  26.662100   0.001476   0.000517
                        CHANNELS 3 Zrotation Xrotation Yrotation
                        JOINT LeftWrist
                        {
                            OFFSET  28.869000  -0.000025  -0.000106
                            CHANNELS 3 Zrotation Xrotation Yrotation
                            JOINT LeftFinger0
                            {
                                OFFSET   2.044660  -2.323460   3.252850
                                CHANNELS 3 Zrotation Xrotation Yrotation
                                JOINT LeftFinger01
                                {
                                    OFFSET   3.088130   0.000000   0.000000
                                    CHANNELS 3 Zrotation Xrotation Yrotation
                                    JOINT LeftFinger02
                                    {
                                        OFFSET   2.639460   0.000000   0.000000
                                        CHANNELS 3 Zrotation Xrotation Yrotation
                                        End Site
                                        {
                                            OFFSET   2.582190   0.000000   0.000000
                                        }
                                    }
                                }
                            }
                            JOINT LeftFinger1
                            {
                                OFFSET   8.364480   0.000000   3.252850
                                CHANNELS 3 Zrotation Xrotation Yrotation
                                JOINT LeftFinger11
                                {
                                    OFFSET   4.646930   0.000000   0.000000
                                    CHANNELS 3 Zrotation Xrotation Yrotation
                                    JOINT LeftFinger12
                                    {
                                        OFFSET   2.323460   0.000000   0.000000
                                        CHANNELS 3 Zrotation Xrotation Yrotation
                                        End Site
                                        {
                                            OFFSET   2.273050   0.000000   0.000000
                                        }
                                    }
                                }
                            }
                            JOINT LeftFinger2
                            {
                                OFFSET   8.364490   0.000015   1.078090
                                CHANNELS 3 Zrotation Xrotation Yrotation
                                JOINT LeftFinger21
                                {
                                    OFFSET   5.111620   0.000000   0.000000
                                    CHANNELS 3 Zrotation Xrotation Yrotation
                                    JOINT LeftFinger22
                                    {
                                        OFFSET   2.788160   0.000016   0.000000
                                        CHANNELS 3 Zrotation Xrotation Yrotation
                                        End Site
                                        {
                                            OFFSET   2.727660   0.000000   0.000000
                                        }
                                    }
                                }
                            }
                            JOINT LeftFinger3
                            {
                                OFFSET   7.899780   0.000017  -1.078090
                                CHANNELS 3 Zrotation Xrotation Yrotation
                                JOINT LeftFinger31
                                {
                                    OFFSET   4.646930   0.000000   0.000000
                                    CHANNELS 3 Zrotation Xrotation Yrotation
                                    JOINT LeftFinger32
                                    {
                                        OFFSET   2.323470   0.000000   0.000000
                                        CHANNELS 3 Zrotation Xrotation Yrotation
                                        End Site
                                        {
                                            OFFSET   2.273050   0.000000   0.000000
                                        }
                                    }
                                }
                            }
                            JOINT LeftFinger4
                            {
                                OFFSET   7.435090   0.000000  -3.252850
                                CHANNELS 3 Zrotation Xrotation Yrotation
                                JOINT LeftFinger41
                                {
                                    OFFSET   3.717550   0.000000   0.000000
                                    CHANNELS 3 Zrotation Xrotation Yrotation
                                    JOINT LeftFinger42
                                    {
                                        OFFSET   1.858770   0.000000   0.000000
                                        CHANNELS 3 Zrotation Xrotation Yrotation
                                        End Site
                                        {
                                            OFFSET   1.818440   0.000000   0.000000
                                        }
                                    }
                                }
                            }
                        }
                    }
                }
            }
            JOINT RightCollar
            {
                OFFSET  -3.911900  19.017000  -0.467063
                CHANNELS 3 Zrotation Xrotation Yrotation
                JOINT RightShoulder
                {
                    OFFSET -10.383700   0.000019   0.000000
                    CHANNELS 3 Zrotation Xrotation Yrotation
                    JOINT RightElbow
                    {
                        OFFSET -26.662100   0.001175   0.000102
                        CHANNELS 3 Zrotation Xrotation Yrotation
                        JOINT RightWrist
                        {
                            OFFSET -28.869000   0.000016  -0.000079
                            CHANNELS 3 Zrotation Xrotation Yrotation
                            JOINT RightFinger0
                            {
                                OFFSET  -2.044660  -2.323490   3.252850
                                CHANNELS 3 Zrotation Xrotation Yrotation
                                JOINT RightFinger01
                                {
                                    OFFSET  -3.088140   0.000000   0.000000
                                    CHANNELS 3 Zrotation Xrotation Yrotation
                                    JOINT RightFinger02
                                    {
                                        OFFSET  -2.639460   0.000000   0.000000
                                        CHANNELS 3 Zrotation Xrotation Yrotation
                                        End Site
                                        {
                                            OFFSET  -2.582190   0.000000   0.000000
                                        }
                                    }
                                }
                            }
                            JOINT RightFinger1
                            {
                                OFFSET  -8.364480   0.000000   3.252850
                                CHANNELS 3 Zrotation Xrotation Yrotation
                                JOINT RightFinger11
                                {
                                    OFFSET  -4.646930   0.000000   0.000000
                                    CHANNELS 3 Zrotation Xrotation Yrotation
                                    JOINT RightFinger12
                                    {
                                        OFFSET  -2.323470   0.000000   0.000000
                                        CHANNELS 3 Zrotation Xrotation Yrotation
                                        End Site
                                        {
                                            OFFSET  -2.273050   0.000000   0.000000
                                        }
                                    }
                                }
                            }
                            JOINT RightFinger2
                            {
                                OFFSET  -8.364480   0.000000   1.078090
                                CHANNELS 3 Zrotation Xrotation Yrotation
                                JOINT RightFinger21
                                {
                                    OFFSET  -5.111620   0.000000   0.000000
                                    CHANNELS 3 Zrotation Xrotation Yrotation
                                    JOINT RightFinger22
                                    {
                                        OFFSET  -2.788160   0.000000   0.000000
                                        CHANNELS 3 Zrotation Xrotation Yrotation
                                        End Site
                                        {
                                            OFFSET  -2.727660   0.000000   0.000000
                                        }
                                    }
                                }
                            }
                            JOINT RightFinger3
                            {
                                OFFSET  -7.899780   0.000000  -1.078090
                                CHANNELS 3 Zrotation Xrotation Yrotation
                                JOINT RightFinger31
                                {
                                    OFFSET  -4.646930   0.000000   0.000000
                                    CHANNELS 3 Zrotation Xrotation Yrotation
                                    JOINT RightFinger32
                                    {
                                        OFFSET  -2.323470   0.000000   0.000000
                                        CHANNELS 3 Zrotation Xrotation Yrotation
                                        End Site
                                        {
                                            OFFSET  -2.273050   0.000000   0.000000
                                        }
                                    }
                                }
                            }
                            JOINT RightFinger4
                            {
                                OFFSET  -7.435090   0.000000  -3.252850
                                CHANNELS 3 Zrotation Xrotation Yrotation
                                JOINT RightFinger41
                                {
                                    OFFSET  -3.717550   0.000000   0.000000
                                    CHANNELS 3 Zrotation Xrotation Yrotation
                                    JOINT RightFinger42
                                    {
                                        OFFSET  -1.858770   0.000000   0.000000
                                        CHANNELS 3 Zrotation Xrotation Yrotation
                                        End Site
                                        {
                                            OFFSET  -1.818440   0.000000   0.000000
                                        }
                                    }
                                }
                            }
                        }
                    }
                }
            }
        }
    }
    JOINT LeftHip
    {
        OFFSET   9.783040   0.000000   0.000000
        CHANNELS 3 Zrotation Xrotation Yrotation
        JOINT LeftKnee
        {
            OFFSET   0.000032 -41.789100  -0.002222
            CHANNELS 3 Zrotation Xrotation Yrotation
            JOINT LeftAnkle
            {
                OFFSET   0.000087 -41.133200  -0.000135
                CHANNELS 3 Zrotation Xrotation Yrotation
                JOINT LeftToe
                {
                    OFFSET   0.000000  -6.358960  14.674500
                    CHANNELS 3 Zrotation Xrotation Yrotation
                    End Site
                    {
                        OFFSET   0.000000   0.000000   3.913200
                    }
                }
            }
        }
    }
    JOINT RightHip
    {
        OFFSET  -9.783040   0.000000   0.000000
        CHANNELS 3 Zrotation Xrotation Yrotation
        JOINT RightKnee
        {
            OFFSET   0.000047 -41.789100  -0.000896
            CHANNELS 3 Zrotation Xrotation Yrotation
            JOINT RightAnkle
            {
                OFFSET  -0.000117 -41.133300  -0.000248
                CHANNELS 3 Zrotation Xrotation Yrotation
                JOINT RightToe
                {
                    OFFSET   0.000000  -6.358970  14.674500
                    CHANNELS 3 Zrotation Xrotation Yrotation
                    End Site
                    {
                        OFFSET   0.000000   0.000000   3.913200
                    }
                }
            }
        }
    }
}
MOTION
Frames: 5
Frame Time:   0.016667
 -1.277110  89.346200   2.333780  -5.949140 -15.177100  -7.806970   4.061560   9.343120  -2.240130   8.669000  18.491600  -5.260540   9.471270   2.611650  -0.435650  15.638600   4.863160  12.459300  -1.474430   2.966340  -0.649215 -67.577100  36.428300 -22.734300  -5.578190 -11.537200 -12.563600   7.872650  -6.903120  14.916400  38.825400  25.723200 -57.543900 -26.257300   0.004519   0.002298  -8.128640   0.002291  -0.000672 -35.749400   5.944680  -8.186910 -29.597800   0.005492   0.007334 -20.718500  -0.005578   0.007070 -28.869100   1.314060  -2.381850 -43.344600   0.007741  -0.001404 -28.867500  -0.001288   0.009494 -28.447400  -4.627590   8.468660 -42.198400  -0.019213  -0.029388 -28.104100  -0.001234  -0.023258 -35.713100  -5.663750   7.816500 -54.150600  -0.011169  -0.046090 -36.064200   0.012428  -0.029020   1.126690  -2.806860  12.428700  46.917100  28.799000  73.454400  -3.695980 -19.210300 108.333000 -43.880700 -32.109500   4.465340 -44.393400  38.592900  78.824200  24.850500   0.000732  -0.000272   7.425240  -0.003727  -0.003095  14.967800   4.230220  15.428000  12.715300  -0.001145   0.000687   8.900720   0.000800   0.000560  12.471000   1.526360   6.872010  12.562500   0.002238   0.001619   8.366590  -0.000715   0.000453  25.021500   2.988780   6.375450  25.187900  -0.000641   0.000756  16.775100   0.000764   0.002086  30.567000   1.147190   1.942450  45.879700   0.002318   0.002912  30.555900   0.000746   0.002188   5.552290  21.009400   2.449410   1.957140   0.001903   2.589800  -3.588370  -4.486430  13.626600  -0.000000   0.000000   0.000000   3.722370  13.890900  -6.082470   0.072977   7.004330   4.723400  -3.739170  -4.874740   5.797210   0.000000   0.000000  -0.000000
 -1.278030  89.346200   2.327610  -5.932430 -15.179700  -7.758290   4.066460   9.338880  -2.223880   8.675970  18.484200  -5.227850   9.391110   2.834110  -0.468568  15.505800   5.285760  12.899200  -1.476740   2.987320  -0.633390 -67.532400  36.466800 -22.834600  -5.567210 -11.578500 -12.597600   7.900180  -6.920700  14.941000  38.820900  25.727000 -57.543800 -26.266200   0.003441   0.001768  -8.133110   0.002241  -0.000632 -35.763200   5.936250  -8.172410 -29.608000   0.003420   0.005711 -20.725600  -0.005577   0.005482 -28.875200   1.309550  -2.373080 -43.353500   0.008704   0.000129 -28.873400  -0.001288   0.008806 -28.444600  -4.637620   8.487300 -42.187800  -0.022258  -0.029313 -28.097100  -0.001235  -0.023908 -35.705800  -5.675290   7.834270 -54.142900  -0.013386  -0.046648 -36.059100   0.012260  -0.030372   1.140700  -2.754330  12.397000  46.832100  28.932800  73.465000  -3.626800 -18.928900 108.251000 -44.300200 -32.162800   4.132030 -44.173500  38.502400  78.693800  25.079800   0.000703  -0.000256   7.539860  -0.003713  -0.003326  14.865500   4.223550  15.512300  12.633700  -0.001218   0.000677   8.843550   0.000757   0.000566  12.382700   1.531410   6.945990  12.475600   0.002271   0.001674   8.308670  -0.000754   0.000520  24.970800   3.016430   6.444940  25.141300  -0.000576   0.000766  16.744100   0.000717   0.002053  30.512700   1.156760   1.962920  45.798700   0.002293   0.002969  30.502000   0.000756   0.002257   5.546650  20.981000   2.448560   1.961450   0.040727   2.569160  -3.590200  -4.503250  13.603600  -0.000000   0.000000   0.000000   3.721030  13.904500  -6.078120   0.076644   6.984800   4.700380  -3.737930  -4.868250   5.771000  -0.000000   0.000000   0.000000
 -1.278490  89.346300   2.321310  -5.912090 -15.182700  -7.695300   4.070570   9.335340  -2.206570   8.681190  18.478400  -5.192920   9.295570   3.044770  -0.498076  15.379200   5.689270  13.234600  -1.483290   3.008190  -0.616725 -67.505300  36.482000 -22.908400  -5.556410 -11.595700 -12.646800   7.932250  -6.947650  14.951700  38.818200  25.731300 -57.543000 -26.278600   0.001561   0.000838  -8.139310   0.002102  -0.000612 -35.778100   5.933030  -8.162580 -29.619700   0.001602   0.003172 -20.733700  -0.005577   0.003009 -28.884100   1.303510  -2.361290 -43.366400   0.009510   0.002722 -28.882000  -0.001287   0.007918 -28.442800  -4.644270   8.499680 -42.171700  -0.022692  -0.028792 -28.086400  -0.001236  -0.024001 -35.697400  -5.682500   7.846430 -54.131100  -0.014177  -0.046727 -36.051300   0.011078  -0.030565   1.150090  -2.703880  12.367000  46.736800  29.072200  73.475000  -3.583470 -18.685200 108.178000 -44.695500 -32.210300   3.818270 -43.849100  38.366200  78.505900  25.277100   0.000675  -0.000239   7.638520  -0.003697  -0.003555  14.770100   4.209170  15.557700  12.555300  -0.001289   0.000668   8.788660   0.000715   0.000575  12.285800   1.536450   7.021170  12.380100   0.002298   0.001730   8.245100  -0.000791   0.000587  24.869500   3.034900   6.517290  25.042300  -0.000513   0.000779  16.678200   0.000673   0.002021  30.414100   1.174030   2.000110  45.651900   0.002272   0.003020  30.404200   0.000766   0.002324   5.544010  20.952600   2.445950   1.963750   0.079552   2.541620  -3.592540  -4.520190  13.574300  -0.000000   0.000000   0.000000   3.720640  13.912300  -6.076740   0.080517   6.967570   4.674830  -3.738770  -4.862180   5.737110  -0.000000   0.000000  -0.000000
 -1.278490  89.346300   2.314920  -5.885680 -15.185900  -7.617370   4.073740   9.332110  -2.190120   8.685270  18.473100  -5.159540   9.181860   3.245260  -0.524191  15.214100   6.076380  13.487800  -1.494490   3.027430  -0.606475 -67.486700  36.484000 -22.957100  -5.545710 -11.585600 -12.709300   7.974960  -7.004630  14.952700  38.734600  25.579100 -57.413100 -26.325300  -0.000570  -0.000229  -8.162660   0.001873  -0.000554 -35.803800   5.933280  -8.155320 -29.640600   0.000425   0.001127 -20.748300  -0.005585   0.001063 -28.911300   1.280010  -2.316210 -43.405700   0.010164   0.005019 -28.908200  -0.001288   0.006883 -28.441900  -4.647930   8.506500 -42.164300  -0.010572  -0.012573 -28.081400  -0.001234  -0.010821 -35.692700  -5.686220   7.853300 -54.125000  -0.006838  -0.020542 -36.047200   0.004050  -0.013672   1.157500  -2.663770  12.348400  46.595500  29.237700  73.485100  -3.588610 -18.503100 108.120000 -45.058500 -32.325000   3.490640 -43.672400  38.302000  78.422800  25.424500   0.000656  -0.000232   7.712230  -0.003683  -0.003776  14.681200   4.187260  15.569500  12.480300  -0.001350   0.000663   8.736150   0.000671   0.000581  12.184100   1.532250   7.061330  12.278600   0.002315   0.001776   8.177580  -0.000818   0.000649  24.738100   3.033520   6.558920  24.911800  -0.000470   0.000792  16.591300   0.000639   0.001983  30.322400   1.190020   2.034810  45.515200   0.002258   0.003068  30.313200   0.000773   0.002385   5.541390  20.955100   2.439960   1.963970   0.040888   2.508590  -3.593830  -4.499120  13.542100  -0.000000   0.000000   0.000000   3.720430  13.912800  -6.080760   0.084262   6.957810   4.645670  -3.740780  -4.857850   5.694710   0.000000   0.000000   0.000000
 -1.278450  89.346500   2.308650  -5.855100 -15.189100  -7.527720   4.074050   9.329260  -2.174170   8.682390  18.468600  -5.126820   9.057650   3.433390  -0.546966  15.014800   6.442630  13.675000  -1.509980   3.046450  -0.593837 -67.474700  36.479600 -22.987200  -5.537280 -11.571600 -12.774200   8.012730  -7.044030  14.948500  38.652900  25.424600 -57.287100 -26.359300  -0.001899  -0.000898  -8.179650   0.001587  -0.000479 -35.821000   5.933490  -8.150520 -29.654400  -0.000060   0.000000 -20.758000  -0.005594  -0.000000 -28.930800   1.262900  -2.283440 -43.433800   0.010683   0.007076 -28.926900  -0.001289   0.005740 -28.441900  -4.648920   8.508350 -42.154700   0.001549   0.003198 -28.075000  -0.001232   0.002359 -35.687800  -5.687040   7.855320 -54.117900   0.000501   0.005644 -36.042500  -0.001977   0.003221   1.163580  -2.630360  12.334800  46.528400  29.392000  73.452100  -3.615900 -18.337400 108.078000 -45.354100 -32.454700   3.181480 -43.504400  38.230600  78.357600  25.533800   0.000636  -0.000226   7.766920  -0.003670  -0.003997  14.591600   4.159370  15.570700  12.404000  -0.001411   0.000658   8.682800   0.000629   0.000586  12.075300   1.523310   7.086230  12.169500   0.002331   0.001823   8.104950  -0.000845   0.000713  24.594900   3.029250   6.586850  24.769200  -0.000428   0.000807  16.496300   0.000607   0.001943  30.213300   1.208830   2.076200  45.352600   0.002247   0.003113  30.204900   0.000781   0.002446   5.538940  20.957700   2.432930   1.964170   0.001828   2.469560  -3.597220  -4.468830  13.505900   0.000000   0.000000  -0.000000   3.719280  13.912500  -6.094750   0.086582   6.951310   4.628350  -3.743800  -4.854860   5.643800   0.000000   0.000000   0.000000
